# Blender 3.4.1
# www.blender.org
mtllib fish.mtl
o fish
v -4.734845 -31.609991 -180.262543
v -4.734845 -28.980911 -180.262543
v -4.932637 -32.087963 -198.850067
v -4.932637 -28.502932 -198.850067
v -3.646913 -31.609991 -180.262543
v -3.646913 -28.980911 -180.262543
v -3.449126 -32.087963 -198.850067
v -3.449126 -28.502932 -198.850067
v -6.025127 -34.728065 -195.233841
v -6.025127 -25.862833 -195.233841
v -2.356634 -34.728065 -195.233841
v -2.356634 -25.862833 -195.233841
v -5.806864 -34.200615 -183.837769
v -2.574896 -26.390284 -183.837769
v -5.806863 -26.390284 -183.837769
v -2.574896 -34.200615 -183.837769
v -5.885939 -26.199192 -205.631287
v -5.885939 -34.391705 -205.631287
v -2.495822 -34.391705 -205.631287
v -2.495823 -26.199192 -205.631287
v -6.438993 -24.862688 -189.601410
v -1.942766 -35.728210 -189.601410
v -6.438993 -35.728210 -189.601410
v -1.942766 -24.862688 -189.601410
v -2.241829 -25.585396 -204.465363
v -6.139933 -25.585396 -204.465347
v -6.139933 -35.005501 -204.465347
v -2.241829 -35.005501 -204.465363
v -5.127831 -28.031231 -201.029999
v -5.127831 -32.559669 -201.029999
v -3.253932 -28.031231 -201.029999
v -3.253932 -32.559669 -201.029999
v -5.200750 -32.735889 -181.537003
v -4.773774 -30.295450 -180.021240
v -5.433332 -27.292957 -197.344604
v -5.210795 -30.295450 -198.850067
v -4.190882 -32.760159 -198.850067
v -4.190882 -27.830738 -198.850067
v -3.170968 -30.295450 -198.850067
v -2.948429 -33.297939 -197.344604
v -3.181009 -27.855009 -181.537003
v -3.607984 -30.295450 -180.021240
v -4.190879 -31.704067 -180.021240
v -4.190879 -28.886833 -180.021240
v -5.433332 -33.297939 -197.344604
v -6.374824 -25.017759 -192.568756
v -2.006936 -35.573139 -192.568756
v -2.948429 -27.292957 -197.344604
v -4.190880 -24.200603 -195.233841
v -4.190880 -36.390297 -195.233841
v -1.668792 -30.295450 -195.233841
v -6.712969 -30.295450 -195.233841
v -6.244154 -35.257366 -186.617661
v -2.137605 -25.333532 -186.617661
v -5.200750 -27.855009 -181.537003
v -3.181008 -32.735889 -181.537003
v -6.412858 -30.295450 -183.837769
v -4.190880 -24.925848 -183.837769
v -4.190880 -35.665051 -183.837769
v -1.968902 -30.295450 -183.837769
v -6.265530 -30.295446 -205.667374
v -4.190881 -35.309017 -205.667374
v -4.190881 -25.281876 -205.667374
v -2.116232 -30.295446 -205.667374
v -2.087191 -25.211699 -205.361771
v -4.841270 -28.723728 -199.872986
v -4.841270 -31.867167 -199.872986
v -2.087191 -35.379196 -205.361771
v -6.244154 -25.333532 -186.617661
v -2.137605 -35.257366 -186.617661
v -6.374824 -35.573139 -192.568756
v -2.006936 -25.017759 -192.568756
v -1.099723 -30.295450 -189.601410
v -4.190880 -37.765495 -189.601410
v -4.190880 -22.825401 -189.601410
v -7.282037 -30.295450 -189.601410
v -2.735699 -26.778872 -202.781082
v -6.294571 -25.211699 -205.361771
v -6.294571 -35.379200 -205.361771
v -2.735699 -33.812027 -202.781082
v -4.190881 -36.771770 -204.465363
v -1.510934 -30.295446 -204.465363
v -6.870827 -30.295450 -204.465363
v -4.190881 -23.819122 -204.465363
v -5.646064 -26.778873 -202.781082
v -5.646064 -33.812027 -202.781082
v -3.540493 -28.723728 -199.872986
v -3.540493 -31.867170 -199.872986
v -4.190882 -27.182146 -201.029999
v -5.479187 -30.295450 -201.029999
v -2.902576 -30.295450 -201.029999
v -4.190882 -33.408749 -201.029999
v -5.899252 -30.295450 -197.344604
v -4.190881 -23.295555 -205.365341
v -2.818736 -30.295450 -181.513199
v -4.190878 -30.295450 -179.514862
v -4.190879 -33.611351 -181.513199
v -4.190879 -26.979548 -181.513199
v -4.190881 -26.167023 -197.344604
v -4.190881 -34.423874 -197.344604
v -2.482510 -30.295450 -197.344604
v -7.193803 -30.295450 -192.568756
v -5.563022 -30.295450 -181.513199
v -4.190880 -23.472813 -186.617661
v -4.190880 -37.118084 -186.617661
v -1.367626 -30.295450 -186.617661
v -4.190881 -30.295446 -205.743103
v -7.087484 -30.295446 -205.365341
v -1.294278 -30.295450 -205.365341
v -4.190881 -37.295341 -205.365341
v -1.187957 -30.295450 -192.568756
v -4.190880 -37.552273 -192.568756
v -4.190880 -23.038626 -192.568756
v -7.014133 -30.295450 -186.617661
v -4.190881 -35.130737 -202.781082
v -2.190005 -30.295450 -202.781082
v -6.191758 -30.295450 -202.781082
v -4.190881 -25.460157 -202.781082
v -4.190882 -28.134335 -199.872986
v -5.085166 -30.295450 -199.872986
v -3.296598 -30.295450 -199.872986
v -4.190882 -32.456566 -199.872986
vn -0.8147 -0.4425 -0.3748
vn -0.9636 -0.0000 -0.2675
vn -0.9221 -0.0000 -0.3869
vn -0.7618 -0.3890 -0.5180
vn -0.8147 0.4425 -0.3748
vn -0.7618 0.3890 -0.5180
vn -0.8343 0.4068 -0.3720
vn -0.9611 -0.0000 -0.2761
vn -0.8343 -0.4068 -0.3720
vn -0.8016 0.4271 0.4183
vn -0.0000 0.8155 0.5788
vn -0.0000 0.9439 -0.3301
vn -0.7713 0.4834 -0.4141
vn 0.8016 0.4271 0.4183
vn 0.7713 0.4834 -0.4141
vn 0.2076 0.0679 -0.9759
vn -0.0000 0.1167 -0.9932
vn -0.2076 0.0679 -0.9759
vn 0.8127 -0.4361 0.3863
vn 0.9613 -0.0000 0.2754
vn 0.9175 -0.0000 0.3976
vn 0.7495 -0.3908 0.5343
vn 0.8127 0.4361 0.3863
vn 0.7495 0.3908 0.5343
vn 0.6866 0.3107 0.6573
vn 0.7395 -0.0000 0.6731
vn 0.6866 -0.3107 0.6573
vn -0.0000 -0.0000 1.0000
vn -0.0000 -0.4590 0.8884
vn -0.0000 0.4590 0.8884
vn -0.6866 0.3107 0.6573
vn -0.7395 -0.0000 0.6731
vn -0.6866 -0.3107 0.6573
vn -0.8127 -0.4361 0.3863
vn -0.0000 -0.8400 0.5426
vn -0.0000 -0.7099 0.7043
vn -0.7495 -0.3908 0.5343
vn -0.0000 0.8400 0.5426
vn -0.0000 0.7099 0.7043
vn -0.8127 0.4361 0.3863
vn -0.7495 0.3908 0.5343
vn 0.8343 0.4068 -0.3720
vn -0.0000 0.8046 -0.5938
vn -0.0000 0.7113 -0.7028
vn 0.7618 0.3890 -0.5180
vn -0.0000 0.8559 -0.5172
vn 0.8147 0.4425 -0.3748
vn -0.0000 -0.8046 -0.5938
vn -0.0000 -0.7113 -0.7028
vn 0.8343 -0.4068 -0.3720
vn 0.7618 -0.3890 -0.5180
vn 0.8147 -0.4425 -0.3748
vn -0.0000 -0.8559 -0.5172
vn 0.9611 -0.0000 -0.2761
vn 0.9221 -0.0000 -0.3869
vn 0.9636 -0.0000 -0.2675
vn -0.8725 -0.4866 0.0441
vn -0.9996 -0.0000 0.0297
vn -0.9947 -0.0000 -0.1032
vn -0.8629 -0.4821 -0.1516
vn -0.8725 0.4866 0.0441
vn -0.8629 0.4821 -0.1516
vn -0.9175 -0.0000 0.3976
vn -0.9613 -0.0000 0.2754
vn 0.8725 0.4866 0.0441
vn -0.0000 0.9978 0.0670
vn -0.0000 0.9462 0.3236
vn 0.8547 0.4710 0.2182
vn -0.8547 0.4710 0.2182
vn -0.0000 -0.9978 0.0670
vn -0.0000 -0.9462 0.3236
vn -0.8547 -0.4710 0.2182
vn 0.8725 -0.4866 0.0441
vn 0.8547 -0.4710 0.2182
vn 0.9996 -0.0000 0.0297
vn 0.9887 -0.0000 0.1498
vn -0.2076 -0.0679 -0.9759
vn -0.2228 -0.0000 -0.9749
vn -0.0000 -0.0000 -1.0000
vn -0.0000 -0.1167 -0.9932
vn 0.2228 -0.0000 -0.9749
vn 0.2076 -0.0679 -0.9759
vn -0.8016 -0.4271 0.4183
vn -0.9533 -0.0000 0.3020
vn -0.9034 -0.0000 -0.4288
vn -0.7713 -0.4834 -0.4141
vn 0.9533 -0.0000 0.3020
vn 0.9034 -0.0000 -0.4288
vn 0.8016 -0.4271 0.4183
vn 0.7713 -0.4834 -0.4141
vn -0.0000 -0.8155 0.5788
vn -0.0000 -0.9439 -0.3301
vn 0.9947 -0.0000 -0.1032
vn 0.8629 -0.4821 -0.1516
vn 0.8629 0.4821 -0.1516
vn -0.0000 -0.9746 -0.2238
vn -0.0000 0.9746 -0.2238
vn -0.9887 -0.0000 0.1498
vn 0.7846 -0.3976 0.4756
vn -0.0000 -0.7343 0.6789
vn -0.0000 -0.7151 0.6990
vn 0.7695 -0.3911 0.5050
vn -0.7846 -0.3976 0.4756
vn -0.7695 -0.3911 0.5050
vn 0.7846 0.3976 0.4756
vn 0.9365 -0.0000 0.3507
vn 0.9269 -0.0000 0.3754
vn 0.7695 0.3911 0.5050
vn -0.9365 -0.0000 0.3507
vn -0.9269 -0.0000 0.3754
vn -0.7846 0.3976 0.4756
vn -0.7695 0.3911 0.5050
vn -0.0000 0.7343 0.6789
vn -0.0000 0.7151 0.6990
vn -0.0000 0.9673 0.2538
vn -0.8979 0.4176 0.1394
vn 0.8979 0.4176 0.1394
vn -0.9945 -0.0000 0.1051
vn -0.8979 -0.4176 0.1394
vn 0.9945 -0.0000 0.1051
vn 0.8979 -0.4176 0.1394
vn -0.0000 -0.9673 0.2538
vt 0.375000 1.000000
vt 0.125000 0.750000
vt 0.375000 0.000000
vt 0.625000 1.000000
vt 0.875000 0.750000
vt 0.625000 0.000000
vt 0.375000 0.250000
vt 0.125000 0.500000
vt 0.875000 0.500000
vt 0.625000 0.250000
vt 0.375000 0.750000
vt 0.625000 0.750000
vt 0.375000 0.508236
vt 0.625000 0.508236
vt 0.375000 0.200581
vt 0.125000 0.549419
vt 0.625000 0.200581
vt 0.875000 0.549419
vt 0.375000 0.552883
vt 0.625000 0.552883
vt 0.125000 0.689826
vt 0.375000 0.060174
vt 0.625000 0.688154
vt 0.875000 0.689826
vt 0.625000 0.060174
vt 0.375000 0.688154
vt 0.875000 0.500000
vt 0.625000 0.250000
vt 0.375000 0.250000
vt 0.125000 0.500000
vt 0.375000 0.500000
vt 0.625000 0.500000
vt 0.875000 0.619622
vt 0.625000 0.130378
vt 0.375000 0.619622
vt 0.125000 0.619622
vt 0.375000 0.130378
vt 0.625000 0.619622
vt 0.625000 0.500000
vt 0.625000 0.250000
vt 0.875000 0.500000
vt 0.125000 0.500000
vt 0.375000 0.250000
vt 0.375000 0.500000
vt 0.875000 0.500000
vt 0.625000 0.250000
vt 0.375000 0.250000
vt 0.125000 0.500000
vt 0.625000 0.500000
vt 0.375000 0.500000
vt 0.125000 0.719913
vt 0.375000 0.030087
vt 0.500000 1.000000
vt 0.500000 0.000000
vt 0.625000 0.225291
vt 0.875000 0.524709
vt 0.500000 0.243136
vt 0.250000 0.507550
vt 0.750000 0.507550
vt 0.500000 0.508236
vt 0.375000 0.526172
vt 0.625000 0.720363
vt 0.500000 0.776365
vt 0.375000 0.875000
vt 0.250000 0.750000
vt 0.625000 0.875000
vt 0.750000 0.750000
vt 0.375000 0.225291
vt 0.125000 0.524709
vt 0.625000 0.165480
vt 0.875000 0.584520
vt 0.375000 0.584953
vt 0.625000 0.526172
vt 0.750000 0.552594
vt 0.250000 0.552594
vt 0.500000 0.552883
vt 0.500000 0.197695
vt 0.125000 0.654724
vt 0.375000 0.095276
vt 0.625000 0.654515
vt 0.875000 0.719913
vt 0.625000 0.030087
vt 0.375000 0.720363
vt 0.500000 0.061567
vt 0.750000 0.688293
vt 0.250000 0.688293
vt 0.500000 0.688154
vt 0.500000 0.284722
vt 0.375000 0.375000
vt 0.250000 0.500000
vt 0.750000 0.500000
vt 0.625000 0.375000
vt 0.500000 0.465278
vt 0.625000 0.499132
vt 0.875000 0.500000
vt 0.625000 0.250000
vt 0.375000 0.250000
vt 0.125000 0.500000
vt 0.375000 0.499132
vt 0.875000 0.654724
vt 0.625000 0.095276
vt 0.375000 0.654515
vt 0.375000 0.165480
vt 0.125000 0.584520
vt 0.625000 0.584953
vt 0.500000 0.619622
vt 0.250000 0.619622
vt 0.750000 0.619622
vt 0.500000 0.130378
vt 0.625000 0.500000
vt 0.875000 0.500000
vt 0.625000 0.250000
vt 0.375000 0.250000
vt 0.125000 0.500000
vt 0.375000 0.500000
vt 0.250000 0.500000
vt 0.500000 0.500000
vt 0.500000 0.250000
vt 0.750000 0.500000
vt 0.625000 0.250000
vt 0.875000 0.500000
vt 0.125000 0.500000
vt 0.375000 0.250000
vt 0.625000 0.501030
vt 0.375000 0.501030
vt 0.750000 0.500000
vt 0.500000 0.250000
vt 0.500000 0.500000
vt 0.250000 0.500000
vt 0.500000 0.224316
vt 0.750000 0.500000
vt 0.500000 0.722340
vt 0.500000 0.877637
vt 0.250000 0.719739
vt 0.750000 0.719739
vt 0.750000 0.525928
vt 0.250000 0.525928
vt 0.500000 0.526172
vt 0.500000 0.165191
vt 0.500000 0.030227
vt 0.750000 0.654550
vt 0.250000 0.654550
vt 0.500000 0.654515
vt 0.500000 0.375000
vt 0.500000 0.253472
vt 0.500000 0.496528
vt 0.250000 0.500000
vt 0.500000 0.584953
vt 0.250000 0.584881
vt 0.750000 0.584881
vt 0.500000 0.095415
vt 0.250000 0.500000
vt 0.500000 0.500000
vt 0.500000 0.250000
vt 0.750000 0.500000
vt 0.750000 0.500858
vt 0.500000 0.249314
vt 0.500000 0.501030
vt 0.250000 0.500858
s 1
usemtl Fish
f 9/15/1 52/77/2 93/130/3 45/68/4
f 52/77/2 10/17/5 35/55/6 93/130/3
f 93/130/3 35/55/6 4/10/7 36/57/8
f 45/68/4 93/130/3 36/57/8 3/7/9
f 26/41/10 84/119/11 94/131/12 78/111/13
f 84/119/11 25/39/14 65/94/15 94/131/12
f 94/131/12 65/94/15 20/32/16 63/91/17
f 78/111/13 94/131/12 63/91/17 17/27/18
f 16/26/19 60/87/20 95/132/21 56/83/22
f 60/87/20 14/23/23 41/62/24 95/132/21
f 95/132/21 41/62/24 6/12/25 42/63/26
f 56/83/22 95/132/21 42/63/26 5/11/27
f 5/11/27 42/63/26 96/133/28 43/64/29
f 42/63/26 6/12/25 44/66/30 96/133/28
f 96/133/28 44/66/30 2/4/31 34/53/32
f 43/64/29 96/133/28 34/53/32 1/1/33
f 13/21/34 59/86/35 97/134/36 33/51/37
f 59/86/35 16/26/19 56/83/22 97/134/36
f 97/134/36 56/83/22 5/11/27 43/65/29
f 33/51/37 97/134/36 43/65/29 1/2/33
f 14/23/23 58/85/38 98/135/39 41/62/24
f 58/85/38 15/24/40 55/81/41 98/135/39
f 98/135/39 55/81/41 2/5/31 44/67/30
f 41/62/24 98/135/39 44/67/30 6/12/25
f 8/14/42 38/59/43 99/136/44 48/73/45
f 38/59/43 4/9/7 35/56/6 99/136/44
f 99/136/44 35/56/6 10/18/5 49/74/46
f 48/73/45 99/136/44 49/74/46 12/20/47
f 3/8/9 37/58/48 100/137/49 45/69/4
f 37/58/48 7/13/50 40/61/51 100/137/49
f 100/137/49 40/61/51 11/19/52 50/75/53
f 45/69/4 100/137/49 50/75/53 9/16/1
f 7/13/50 39/60/54 101/138/55 40/61/51
f 39/60/54 8/14/42 48/73/45 101/138/55
f 101/138/55 48/73/45 12/20/47 51/76/56
f 40/61/51 101/138/55 51/76/56 11/19/52
f 23/37/57 76/109/58 102/139/59 71/103/60
f 76/109/58 21/34/61 46/70/62 102/139/59
f 102/139/59 46/70/62 10/17/5 52/77/2
f 71/103/60 102/139/59 52/77/2 9/15/1
f 1/3/33 34/54/32 103/140/63 33/52/37
f 34/54/32 2/6/31 55/82/41 103/140/63
f 103/140/63 55/82/41 15/25/40 57/84/64
f 33/52/37 103/140/63 57/84/64 13/22/34
f 24/38/65 75/108/66 104/141/67 54/80/68
f 75/108/66 21/33/61 69/100/69 104/141/67
f 104/141/67 69/100/69 15/24/40 58/85/38
f 54/80/68 104/141/67 58/85/38 14/23/23
f 23/36/57 74/107/70 105/142/71 53/78/72
f 74/107/70 22/35/73 70/102/74 105/142/71
f 105/142/71 70/102/74 16/26/19 59/86/35
f 53/78/72 105/142/71 59/86/35 13/21/34
f 22/35/73 73/106/75 106/143/76 70/102/74
f 73/106/75 24/38/65 54/80/68 106/143/76
f 106/143/76 54/80/68 14/23/23 60/87/20
f 70/102/74 106/143/76 60/87/20 16/26/19
f 18/29/77 61/88/78 107/144/79 62/89/80
f 61/88/78 17/28/18 63/92/17 107/144/79
f 107/144/79 63/92/17 20/32/16 64/93/81
f 62/89/80 107/144/79 64/93/81 19/31/82
f 27/43/83 83/118/84 108/145/85 79/113/86
f 83/118/84 26/40/10 78/112/13 108/145/85
f 108/145/85 78/112/13 17/28/18 61/88/78
f 79/113/86 108/145/85 61/88/78 18/29/77
f 25/39/14 82/117/87 109/146/88 65/94/15
f 82/117/87 28/44/89 68/99/90 109/146/88
f 109/146/88 68/99/90 19/31/82 64/93/81
f 65/94/15 109/146/88 64/93/81 20/32/16
f 28/44/89 81/116/91 110/147/92 68/99/90
f 81/116/91 27/42/83 79/114/86 110/147/92
f 110/147/92 79/114/86 18/30/77 62/90/80
f 68/99/90 110/147/92 62/90/80 19/31/82
f 11/19/52 51/76/56 111/148/93 47/72/94
f 51/76/56 12/20/47 72/105/95 111/148/93
f 111/148/93 72/105/95 24/38/65 73/106/75
f 47/72/94 111/148/93 73/106/75 22/35/73
f 9/16/1 50/75/53 112/149/96 71/104/60
f 50/75/53 11/19/52 47/72/94 112/149/96
f 112/149/96 47/72/94 22/35/73 74/107/70
f 71/104/60 112/149/96 74/107/70 23/36/57
f 12/20/47 49/74/46 113/150/97 72/105/95
f 49/74/46 10/18/5 46/71/62 113/150/97
f 113/150/97 46/71/62 21/33/61 75/108/66
f 72/105/95 113/150/97 75/108/66 24/38/65
f 13/22/34 57/84/64 114/151/98 53/79/72
f 57/84/64 15/25/40 69/101/69 114/151/98
f 114/151/98 69/101/69 21/34/61 76/109/58
f 53/79/72 114/151/98 76/109/58 23/37/57
f 32/50/99 92/129/100 115/152/101 80/115/102
f 92/129/100 30/48/103 86/122/104 115/152/101
f 115/152/101 86/122/104 27/42/83 81/116/91
f 80/115/102 115/152/101 81/116/91 28/44/89
f 31/49/105 91/128/106 116/153/107 77/110/108
f 91/128/106 32/50/99 80/115/102 116/153/107
f 116/153/107 80/115/102 28/44/89 82/117/87
f 77/110/108 116/153/107 82/117/87 25/39/14
f 30/47/103 90/127/109 117/154/110 86/123/104
f 90/127/109 29/46/111 85/120/112 117/154/110
f 117/154/110 85/120/112 26/40/10 83/118/84
f 86/123/104 117/154/110 83/118/84 27/43/83
f 29/45/111 89/126/113 118/155/114 85/121/112
f 89/126/113 31/49/105 77/110/108 118/155/114
f 118/155/114 77/110/108 25/39/14 84/119/11
f 85/121/112 118/155/114 84/119/11 26/41/10
f 4/9/7 38/59/43 119/156/115 66/95/116
f 38/59/43 8/14/42 87/124/117 119/156/115
f 119/156/115 87/124/117 31/49/105 89/126/113
f 66/95/116 119/156/115 89/126/113 29/45/111
f 3/7/9 36/57/8 120/157/118 67/97/119
f 36/57/8 4/10/7 66/96/116 120/157/118
f 120/157/118 66/96/116 29/46/111 90/127/109
f 67/97/119 120/157/118 90/127/109 30/47/103
f 8/14/42 39/60/54 121/158/120 87/124/117
f 39/60/54 7/13/50 88/125/121 121/158/120
f 121/158/120 88/125/121 32/50/99 91/128/106
f 87/124/117 121/158/120 91/128/106 31/49/105
f 7/13/50 37/58/48 122/159/122 88/125/121
f 37/58/48 3/8/9 67/98/119 122/159/122
f 122/159/122 67/98/119 30/48/103 92/129/100
f 88/125/121 122/159/122 92/129/100 32/50/99
