# Blender 3.4.1
# www.blender.org
mtllib star.mtl
o Star.s
v -0.844067 -9.446505 -169.765533
v -0.907882 -8.794605 -164.735458
v -1.060109 -4.156476 -162.687241
v -0.947321 -8.737263 -160.511414
v -0.977588 -9.252378 -155.465179
v -0.844067 -12.735358 -159.150513
v -0.710545 -17.691845 -158.079987
v -0.740812 -15.263659 -162.533493
v -0.628024 -17.811823 -166.918091
v -0.780252 -12.828138 -165.985184
v -0.843973 -11.678645 -162.571640
v -0.947457 -8.739573 -160.488800
v 0.797467 -8.745369 -164.720215
v 0.861283 -9.397271 -169.750275
v 0.645240 -4.107243 -162.671997
v 0.758028 -8.688026 -160.496155
v 0.757892 -8.690336 -160.473541
v 0.861283 -12.686125 -159.135254
v 0.727761 -9.203142 -155.449936
v 0.964537 -15.214422 -162.518234
v 0.994804 -17.642609 -158.064728
v 1.077325 -17.762589 -166.902832
v 0.925098 -12.778905 -165.969925
v 0.861377 -11.629412 -162.556396
vn -0.8452 0.4154 -0.3363
vn -0.9995 -0.0289 -0.0089
vn -0.7277 0.6827 0.0653
vn -0.6340 0.6284 0.4507
vn -0.5726 0.8196 -0.0165
vn -0.8355 -0.1866 0.5169
vn -0.8197 -0.5728 0.0001
vn -0.5338 -0.6851 0.4957
vn -0.5635 0.2531 0.7864
vn -0.5486 0.2315 -0.8034
vn -0.8257 -0.2008 -0.5272
vn 0.8257 0.4636 -0.3213
vn 0.5246 0.8513 -0.0067
vn 0.5885 0.6637 0.4616
vn 0.6858 0.7236 0.0780
vn 0.9995 0.0289 0.0089
vn 0.8355 -0.1384 0.5319
vn 0.5635 -0.6534 0.5055
vn 0.8512 -0.5246 0.0151
vn -0.5246 -0.6984 -0.4868
vn 0.5338 0.2848 0.7962
vn 0.8452 -0.1525 -0.5122
vn 0.5486 0.2632 -0.7936
vn 0.5726 -0.6667 -0.4770
vt 0.000000 0.000000
vt 0.000000 0.000000
vt 0.000000 0.000000
vt 0.000000 0.000000
vt 0.000000 0.000000
vt 0.000000 0.000000
vt 0.000000 0.000000
vt 0.000000 0.000000
vt 0.000000 0.000000
vt 0.000000 0.000000
vt 0.000000 0.000000
vt 0.000000 0.000000
vt 0.000000 0.000000
vt 0.000000 0.000000
vt 0.000000 0.000000
vt 0.000000 0.000000
vt 0.000000 0.000000
vt 0.000000 0.000000
vt 0.000000 0.000000
vt 0.000000 0.000000
vt 0.000000 0.000000
vt 0.000000 0.000000
vt 0.000000 0.000000
vt 0.000000 0.000000
s 1
usemtl Star
f 2/2/1 11/11/2 12/12/3 4/4/4 3/3/5
f 6/6/6 11/11/2 8/8/7 7/7/8
f 11/11/2 6/6/6 5/5/9 12/12/3
f 11/11/2 2/2/1 1/1/10 10/10/11
f 13/13/12 15/15/13 16/16/14 17/17/15 24/24/16
f 18/18/17 21/21/18 20/20/19 24/24/16
f 10/10/11 9/9/20 8/8/7 11/11/2
f 24/24/16 17/17/15 19/19/21 18/18/17
f 24/24/16 23/23/22 14/14/23 13/13/12
f 23/23/22 24/24/16 20/20/19 22/22/24
f 4/4/4 12/12/3 17/17/15 16/16/14
f 1/1/10 2/2/1 13/13/12 14/14/23
f 9/9/20 10/10/11 23/23/22 22/22/24
f 5/5/9 6/6/6 18/18/17 19/19/21
f 12/12/3 5/5/9 19/19/21 17/17/15
f 2/2/1 3/3/5 15/15/13 13/13/12
f 10/10/11 1/1/10 14/14/23 23/23/22
f 7/7/8 8/8/7 20/20/19 21/21/18
f 3/3/5 4/4/4 16/16/14 15/15/13
f 6/6/6 7/7/8 21/21/18 18/18/17
f 8/8/7 9/9/20 22/22/24 20/20/19
